<mxfile host="app.diagrams.net" agent="Mozilla/5.0 (Macintosh; Intel Mac OS X 10_15_7) AppleWebKit/537.36 (KHTML, like Gecko) Chrome/126.0.0.0 Safari/537.36" version="26.0.16">
  <diagram name="第 1 页" id="ePOfR6-7XK6J3gQvAiG-">
    <mxGraphModel dx="775" dy="376" grid="1" gridSize="10" guides="1" tooltips="1" connect="1" arrows="1" fold="1" page="1" pageScale="1" pageWidth="827" pageHeight="1169" math="0" shadow="0">
      <root>
        <mxCell id="0" />
        <mxCell id="1" parent="0" />
        <mxCell id="NCkq3VcNT3mjd71MVEYt-10" value="" style="rounded=0;whiteSpace=wrap;html=1;fillColor=#d5e8d4;strokeColor=#82b366;" vertex="1" parent="1">
          <mxGeometry x="100" y="400" width="500" height="170" as="geometry" />
        </mxCell>
        <mxCell id="NCkq3VcNT3mjd71MVEYt-8" style="edgeStyle=orthogonalEdgeStyle;rounded=0;orthogonalLoop=1;jettySize=auto;html=1;exitX=1;exitY=0.5;exitDx=0;exitDy=0;entryX=0;entryY=0.5;entryDx=0;entryDy=0;startArrow=classic;startFill=1;" edge="1" parent="1" source="NCkq3VcNT3mjd71MVEYt-4" target="NCkq3VcNT3mjd71MVEYt-6">
          <mxGeometry relative="1" as="geometry" />
        </mxCell>
        <mxCell id="NCkq3VcNT3mjd71MVEYt-4" value="" style="rounded=0;whiteSpace=wrap;html=1;dashed=1;fillColor=#dae8fc;strokeColor=#6c8ebf;" vertex="1" parent="1">
          <mxGeometry x="110" y="420" width="120" height="140" as="geometry" />
        </mxCell>
        <mxCell id="NCkq3VcNT3mjd71MVEYt-2" value="Load Unit" style="rounded=0;whiteSpace=wrap;html=1;" vertex="1" parent="1">
          <mxGeometry x="120" y="440" width="100" height="30" as="geometry" />
        </mxCell>
        <mxCell id="NCkq3VcNT3mjd71MVEYt-3" value="Store Unit" style="rounded=0;whiteSpace=wrap;html=1;" vertex="1" parent="1">
          <mxGeometry x="120" y="490" width="100" height="30" as="geometry" />
        </mxCell>
        <mxCell id="NCkq3VcNT3mjd71MVEYt-5" value="Global Mem" style="text;strokeColor=none;align=center;fillColor=none;html=1;verticalAlign=middle;whiteSpace=wrap;rounded=0;fontStyle=1" vertex="1" parent="1">
          <mxGeometry x="100" y="530" width="140" height="30" as="geometry" />
        </mxCell>
        <mxCell id="NCkq3VcNT3mjd71MVEYt-6" value="TMA Cache" style="rounded=0;whiteSpace=wrap;html=1;" vertex="1" parent="1">
          <mxGeometry x="310" y="465" width="110" height="50" as="geometry" />
        </mxCell>
        <mxCell id="NCkq3VcNT3mjd71MVEYt-11" value="Tensor Memory Accelerator(TMA)" style="text;strokeColor=none;align=center;fillColor=none;html=1;verticalAlign=middle;whiteSpace=wrap;rounded=0;fontStyle=1" vertex="1" parent="1">
          <mxGeometry x="260" y="395" width="240" height="30" as="geometry" />
        </mxCell>
        <mxCell id="NCkq3VcNT3mjd71MVEYt-12" value="CUDA Cores" style="rounded=0;whiteSpace=wrap;html=1;fillColor=#ffe6cc;strokeColor=#d79b00;" vertex="1" parent="1">
          <mxGeometry x="640" y="430" width="110" height="50" as="geometry" />
        </mxCell>
        <mxCell id="NCkq3VcNT3mjd71MVEYt-14" value="" style="rounded=0;whiteSpace=wrap;html=1;dashed=1;fillColor=#ffe6cc;strokeColor=#d79b00;" vertex="1" parent="1">
          <mxGeometry x="470" y="420" width="120" height="140" as="geometry" />
        </mxCell>
        <mxCell id="NCkq3VcNT3mjd71MVEYt-15" value="CUDA Cores" style="rounded=0;whiteSpace=wrap;html=1;" vertex="1" parent="1">
          <mxGeometry x="480" y="440" width="100" height="30" as="geometry" />
        </mxCell>
        <mxCell id="NCkq3VcNT3mjd71MVEYt-16" value="CUDA Cores" style="rounded=0;whiteSpace=wrap;html=1;" vertex="1" parent="1">
          <mxGeometry x="480" y="490" width="100" height="30" as="geometry" />
        </mxCell>
        <mxCell id="NCkq3VcNT3mjd71MVEYt-17" value="Share Mem" style="text;strokeColor=none;align=center;fillColor=none;html=1;verticalAlign=middle;whiteSpace=wrap;rounded=0;fontStyle=1" vertex="1" parent="1">
          <mxGeometry x="460" y="530" width="140" height="30" as="geometry" />
        </mxCell>
        <mxCell id="NCkq3VcNT3mjd71MVEYt-18" value="..." style="text;strokeColor=none;align=center;fillColor=none;html=1;verticalAlign=middle;whiteSpace=wrap;rounded=0;fontStyle=1;fontSize=14;" vertex="1" parent="1">
          <mxGeometry x="500" y="460" width="60" height="30" as="geometry" />
        </mxCell>
      </root>
    </mxGraphModel>
  </diagram>
</mxfile>
